<mxfile host="app.diagrams.net" modified="2024-02-15T10:24:51.095Z" agent="Mozilla/5.0 (X11; Linux x86_64) AppleWebKit/537.36 (KHTML, like Gecko) Chrome/114.0.0.0 Safari/537.36" etag="q_y_vnXWD1GB5O5l3Ioo" version="23.1.0" type="google">
  <diagram name="Página-1" id="HRC3GEXXKmoOnmp0JOtH">
    <mxGraphModel grid="1" page="1" gridSize="10" guides="1" tooltips="1" connect="1" arrows="1" fold="1" pageScale="1" pageWidth="827" pageHeight="1169" math="0" shadow="0">
      <root>
        <mxCell id="0" />
        <mxCell id="1" parent="0" />
        <mxCell id="Cd0Fy0d24aAjxqollalq-1" value="Profesor" style="shape=umlActor;verticalLabelPosition=bottom;verticalAlign=top;html=1;" vertex="1" parent="1">
          <mxGeometry x="150" y="80" width="30" height="60" as="geometry" />
        </mxCell>
        <mxCell id="Cd0Fy0d24aAjxqollalq-10" value="Poner notas" style="ellipse;whiteSpace=wrap;html=1;" vertex="1" parent="1">
          <mxGeometry x="260" width="120" height="80" as="geometry" />
        </mxCell>
        <mxCell id="Cd0Fy0d24aAjxqollalq-11" value="gestionar alumno" style="ellipse;whiteSpace=wrap;html=1;" vertex="1" parent="1">
          <mxGeometry x="260" y="90" width="120" height="80" as="geometry" />
        </mxCell>
        <mxCell id="Cd0Fy0d24aAjxqollalq-12" value="añadir" style="ellipse;whiteSpace=wrap;html=1;" vertex="1" parent="1">
          <mxGeometry x="380" y="160" width="120" height="80" as="geometry" />
        </mxCell>
        <mxCell id="Cd0Fy0d24aAjxqollalq-13" value="borrar" style="ellipse;whiteSpace=wrap;html=1;" vertex="1" parent="1">
          <mxGeometry x="340" y="240" width="120" height="80" as="geometry" />
        </mxCell>
        <mxCell id="Cd0Fy0d24aAjxqollalq-14" value="" style="endArrow=classic;html=1;rounded=0;entryX=0.5;entryY=1;entryDx=0;entryDy=0;exitX=0;exitY=0.5;exitDx=0;exitDy=0;" edge="1" parent="1" source="Cd0Fy0d24aAjxqollalq-13" target="Cd0Fy0d24aAjxqollalq-11">
          <mxGeometry width="50" height="50" relative="1" as="geometry">
            <mxPoint x="290" y="270" as="sourcePoint" />
            <mxPoint x="340" y="220" as="targetPoint" />
          </mxGeometry>
        </mxCell>
        <mxCell id="Cd0Fy0d24aAjxqollalq-15" value="extends" style="edgeLabel;html=1;align=center;verticalAlign=middle;resizable=0;points=[];" connectable="0" vertex="1" parent="Cd0Fy0d24aAjxqollalq-14">
          <mxGeometry x="-0.4235" relative="1" as="geometry">
            <mxPoint x="-6" y="-10" as="offset" />
          </mxGeometry>
        </mxCell>
        <mxCell id="Cd0Fy0d24aAjxqollalq-16" value="" style="endArrow=classic;html=1;rounded=0;entryX=0.5;entryY=1;entryDx=0;entryDy=0;exitX=0;exitY=0.5;exitDx=0;exitDy=0;" edge="1" parent="1" source="Cd0Fy0d24aAjxqollalq-12" target="Cd0Fy0d24aAjxqollalq-11">
          <mxGeometry width="50" height="50" relative="1" as="geometry">
            <mxPoint x="430" y="80" as="sourcePoint" />
            <mxPoint x="389" y="50" as="targetPoint" />
          </mxGeometry>
        </mxCell>
        <mxCell id="Cd0Fy0d24aAjxqollalq-17" value="extends" style="edgeLabel;html=1;align=center;verticalAlign=middle;resizable=0;points=[];" connectable="0" vertex="1" parent="Cd0Fy0d24aAjxqollalq-16">
          <mxGeometry x="-0.4235" relative="1" as="geometry">
            <mxPoint x="-6" y="-10" as="offset" />
          </mxGeometry>
        </mxCell>
        <mxCell id="Cd0Fy0d24aAjxqollalq-18" value="consultar" style="ellipse;whiteSpace=wrap;html=1;" vertex="1" parent="1">
          <mxGeometry x="310" y="340" width="120" height="80" as="geometry" />
        </mxCell>
        <mxCell id="Cd0Fy0d24aAjxqollalq-19" value="seleccionar alumno" style="ellipse;whiteSpace=wrap;html=1;" vertex="1" parent="1">
          <mxGeometry x="480" y="420" width="120" height="80" as="geometry" />
        </mxCell>
        <mxCell id="Cd0Fy0d24aAjxqollalq-22" value="" style="endArrow=classic;html=1;rounded=0;exitX=0.5;exitY=1;exitDx=0;exitDy=0;entryX=0;entryY=0.5;entryDx=0;entryDy=0;" edge="1" parent="1" source="Cd0Fy0d24aAjxqollalq-18" target="Cd0Fy0d24aAjxqollalq-19">
          <mxGeometry width="50" height="50" relative="1" as="geometry">
            <mxPoint x="380" y="400" as="sourcePoint" />
            <mxPoint x="430" y="350" as="targetPoint" />
          </mxGeometry>
        </mxCell>
        <mxCell id="Cd0Fy0d24aAjxqollalq-23" value="use" style="edgeLabel;html=1;align=center;verticalAlign=middle;resizable=0;points=[];" connectable="0" vertex="1" parent="Cd0Fy0d24aAjxqollalq-22">
          <mxGeometry x="-0.5061" y="-1" relative="1" as="geometry">
            <mxPoint x="10" as="offset" />
          </mxGeometry>
        </mxCell>
        <mxCell id="Cd0Fy0d24aAjxqollalq-24" value="validar identificacion" style="ellipse;whiteSpace=wrap;html=1;" vertex="1" parent="1">
          <mxGeometry x="640" y="150" width="120" height="80" as="geometry" />
        </mxCell>
        <mxCell id="Cd0Fy0d24aAjxqollalq-26" value="" style="endArrow=classic;html=1;rounded=0;exitX=1;exitY=0.5;exitDx=0;exitDy=0;entryX=0;entryY=0.5;entryDx=0;entryDy=0;" edge="1" parent="1" source="Cd0Fy0d24aAjxqollalq-10" target="Cd0Fy0d24aAjxqollalq-24">
          <mxGeometry width="50" height="50" relative="1" as="geometry">
            <mxPoint x="480" y="90" as="sourcePoint" />
            <mxPoint x="560" y="120" as="targetPoint" />
          </mxGeometry>
        </mxCell>
        <mxCell id="Cd0Fy0d24aAjxqollalq-27" value="use" style="edgeLabel;html=1;align=center;verticalAlign=middle;resizable=0;points=[];" connectable="0" vertex="1" parent="Cd0Fy0d24aAjxqollalq-26">
          <mxGeometry x="-0.5061" y="-1" relative="1" as="geometry">
            <mxPoint x="10" as="offset" />
          </mxGeometry>
        </mxCell>
        <mxCell id="Cd0Fy0d24aAjxqollalq-29" value="" style="endArrow=classic;html=1;rounded=0;exitX=1;exitY=0.5;exitDx=0;exitDy=0;entryX=0;entryY=0.5;entryDx=0;entryDy=0;" edge="1" parent="1" source="Cd0Fy0d24aAjxqollalq-11" target="Cd0Fy0d24aAjxqollalq-24">
          <mxGeometry width="50" height="50" relative="1" as="geometry">
            <mxPoint x="390" y="50" as="sourcePoint" />
            <mxPoint x="650" y="250" as="targetPoint" />
          </mxGeometry>
        </mxCell>
        <mxCell id="Cd0Fy0d24aAjxqollalq-30" value="use" style="edgeLabel;html=1;align=center;verticalAlign=middle;resizable=0;points=[];" connectable="0" vertex="1" parent="Cd0Fy0d24aAjxqollalq-29">
          <mxGeometry x="-0.5061" y="-1" relative="1" as="geometry">
            <mxPoint x="10" as="offset" />
          </mxGeometry>
        </mxCell>
        <mxCell id="Cd0Fy0d24aAjxqollalq-31" value="" style="endArrow=classic;html=1;rounded=0;exitX=1;exitY=0.5;exitDx=0;exitDy=0;entryX=0;entryY=0.5;entryDx=0;entryDy=0;" edge="1" parent="1" source="Cd0Fy0d24aAjxqollalq-18" target="Cd0Fy0d24aAjxqollalq-24">
          <mxGeometry width="50" height="50" relative="1" as="geometry">
            <mxPoint x="400" y="60" as="sourcePoint" />
            <mxPoint x="660" y="260" as="targetPoint" />
          </mxGeometry>
        </mxCell>
        <mxCell id="Cd0Fy0d24aAjxqollalq-32" value="use" style="edgeLabel;html=1;align=center;verticalAlign=middle;resizable=0;points=[];" connectable="0" vertex="1" parent="Cd0Fy0d24aAjxqollalq-31">
          <mxGeometry x="-0.5061" y="-1" relative="1" as="geometry">
            <mxPoint x="10" as="offset" />
          </mxGeometry>
        </mxCell>
        <mxCell id="Cd0Fy0d24aAjxqollalq-33" value="imprimir" style="ellipse;whiteSpace=wrap;html=1;" vertex="1" parent="1">
          <mxGeometry x="250" y="545" width="120" height="80" as="geometry" />
        </mxCell>
        <mxCell id="Cd0Fy0d24aAjxqollalq-34" value="imprimir las actas" style="ellipse;whiteSpace=wrap;html=1;" vertex="1" parent="1">
          <mxGeometry x="400" y="520" width="120" height="80" as="geometry" />
        </mxCell>
        <mxCell id="Cd0Fy0d24aAjxqollalq-35" value="imprimir lista prov calificaciones" style="ellipse;whiteSpace=wrap;html=1;" vertex="1" parent="1">
          <mxGeometry x="400" y="620" width="120" height="80" as="geometry" />
        </mxCell>
        <mxCell id="Cd0Fy0d24aAjxqollalq-36" value="" style="endArrow=classic;html=1;rounded=0;entryX=1;entryY=0.5;entryDx=0;entryDy=0;exitX=0;exitY=0.5;exitDx=0;exitDy=0;" edge="1" parent="1" source="Cd0Fy0d24aAjxqollalq-35" target="Cd0Fy0d24aAjxqollalq-33">
          <mxGeometry width="50" height="50" relative="1" as="geometry">
            <mxPoint x="400" y="640" as="sourcePoint" />
            <mxPoint x="380" y="530" as="targetPoint" />
          </mxGeometry>
        </mxCell>
        <mxCell id="Cd0Fy0d24aAjxqollalq-37" value="extends" style="edgeLabel;html=1;align=center;verticalAlign=middle;resizable=0;points=[];" connectable="0" vertex="1" parent="Cd0Fy0d24aAjxqollalq-36">
          <mxGeometry x="-0.4235" relative="1" as="geometry">
            <mxPoint x="-6" y="-10" as="offset" />
          </mxGeometry>
        </mxCell>
        <mxCell id="Cd0Fy0d24aAjxqollalq-38" value="" style="endArrow=classic;html=1;rounded=0;entryX=1;entryY=0.5;entryDx=0;entryDy=0;exitX=0;exitY=0.5;exitDx=0;exitDy=0;" edge="1" parent="1" source="Cd0Fy0d24aAjxqollalq-34" target="Cd0Fy0d24aAjxqollalq-33">
          <mxGeometry width="50" height="50" relative="1" as="geometry">
            <mxPoint x="410" y="670" as="sourcePoint" />
            <mxPoint x="380" y="595" as="targetPoint" />
          </mxGeometry>
        </mxCell>
        <mxCell id="Cd0Fy0d24aAjxqollalq-39" value="extends" style="edgeLabel;html=1;align=center;verticalAlign=middle;resizable=0;points=[];" connectable="0" vertex="1" parent="Cd0Fy0d24aAjxqollalq-38">
          <mxGeometry x="-0.4235" relative="1" as="geometry">
            <mxPoint x="-6" y="-10" as="offset" />
          </mxGeometry>
        </mxCell>
        <mxCell id="Cd0Fy0d24aAjxqollalq-40" value="" style="endArrow=classic;html=1;rounded=0;exitX=0.5;exitY=0.5;exitDx=0;exitDy=0;exitPerimeter=0;entryX=0;entryY=0.5;entryDx=0;entryDy=0;" edge="1" parent="1" source="Cd0Fy0d24aAjxqollalq-1" target="Cd0Fy0d24aAjxqollalq-10">
          <mxGeometry width="50" height="50" relative="1" as="geometry">
            <mxPoint x="180" y="250" as="sourcePoint" />
            <mxPoint x="230" y="200" as="targetPoint" />
          </mxGeometry>
        </mxCell>
        <mxCell id="Cd0Fy0d24aAjxqollalq-41" value="" style="endArrow=classic;html=1;rounded=0;exitX=0.5;exitY=0.5;exitDx=0;exitDy=0;exitPerimeter=0;" edge="1" parent="1" source="Cd0Fy0d24aAjxqollalq-1" target="Cd0Fy0d24aAjxqollalq-11">
          <mxGeometry width="50" height="50" relative="1" as="geometry">
            <mxPoint x="170" y="110" as="sourcePoint" />
            <mxPoint x="270" y="50" as="targetPoint" />
          </mxGeometry>
        </mxCell>
        <mxCell id="Cd0Fy0d24aAjxqollalq-43" value="" style="endArrow=classic;html=1;rounded=0;exitX=0.5;exitY=0.5;exitDx=0;exitDy=0;exitPerimeter=0;entryX=0;entryY=0.5;entryDx=0;entryDy=0;" edge="1" parent="1" source="Cd0Fy0d24aAjxqollalq-1" target="Cd0Fy0d24aAjxqollalq-33">
          <mxGeometry width="50" height="50" relative="1" as="geometry">
            <mxPoint x="195" y="140" as="sourcePoint" />
            <mxPoint x="290" y="70" as="targetPoint" />
          </mxGeometry>
        </mxCell>
        <mxCell id="Cd0Fy0d24aAjxqollalq-44" value="Administrador" style="shape=umlActor;verticalLabelPosition=bottom;verticalAlign=top;html=1;" vertex="1" parent="1">
          <mxGeometry x="160" y="800" width="30" height="60" as="geometry" />
        </mxCell>
        <mxCell id="Cd0Fy0d24aAjxqollalq-45" value="Gestionar datos alumno" style="ellipse;whiteSpace=wrap;html=1;" vertex="1" parent="1">
          <mxGeometry x="260" y="780" width="120" height="80" as="geometry" />
        </mxCell>
        <mxCell id="Cd0Fy0d24aAjxqollalq-46" value="alta" style="ellipse;whiteSpace=wrap;html=1;" vertex="1" parent="1">
          <mxGeometry x="360" y="860" width="80" height="50" as="geometry" />
        </mxCell>
        <mxCell id="Cd0Fy0d24aAjxqollalq-48" value="baja" style="ellipse;whiteSpace=wrap;html=1;" vertex="1" parent="1">
          <mxGeometry x="360" y="910" width="80" height="50" as="geometry" />
        </mxCell>
        <mxCell id="Cd0Fy0d24aAjxqollalq-49" value="modificacion" style="ellipse;whiteSpace=wrap;html=1;" vertex="1" parent="1">
          <mxGeometry x="360" y="960" width="80" height="50" as="geometry" />
        </mxCell>
        <mxCell id="Cd0Fy0d24aAjxqollalq-50" value="baja" style="ellipse;whiteSpace=wrap;html=1;" vertex="1" parent="1">
          <mxGeometry x="360" y="1010" width="80" height="50" as="geometry" />
        </mxCell>
        <mxCell id="Cd0Fy0d24aAjxqollalq-51" value="" style="endArrow=classic;html=1;rounded=0;entryX=0.5;entryY=1;entryDx=0;entryDy=0;exitX=0;exitY=0.5;exitDx=0;exitDy=0;" edge="1" parent="1" source="Cd0Fy0d24aAjxqollalq-46" target="Cd0Fy0d24aAjxqollalq-45">
          <mxGeometry width="50" height="50" relative="1" as="geometry">
            <mxPoint x="455" y="910" as="sourcePoint" />
            <mxPoint x="425" y="935" as="targetPoint" />
          </mxGeometry>
        </mxCell>
        <mxCell id="Cd0Fy0d24aAjxqollalq-52" value="extends" style="edgeLabel;html=1;align=center;verticalAlign=middle;resizable=0;points=[];" connectable="0" vertex="1" parent="Cd0Fy0d24aAjxqollalq-51">
          <mxGeometry x="-0.4235" relative="1" as="geometry">
            <mxPoint x="-6" y="-10" as="offset" />
          </mxGeometry>
        </mxCell>
        <mxCell id="Cd0Fy0d24aAjxqollalq-53" value="" style="endArrow=classic;html=1;rounded=0;entryX=0.5;entryY=1;entryDx=0;entryDy=0;exitX=0;exitY=0.5;exitDx=0;exitDy=0;" edge="1" parent="1" source="Cd0Fy0d24aAjxqollalq-48" target="Cd0Fy0d24aAjxqollalq-45">
          <mxGeometry width="50" height="50" relative="1" as="geometry">
            <mxPoint x="370" y="895" as="sourcePoint" />
            <mxPoint x="330" y="870" as="targetPoint" />
          </mxGeometry>
        </mxCell>
        <mxCell id="Cd0Fy0d24aAjxqollalq-54" value="extends" style="edgeLabel;html=1;align=center;verticalAlign=middle;resizable=0;points=[];" connectable="0" vertex="1" parent="Cd0Fy0d24aAjxqollalq-53">
          <mxGeometry x="-0.4235" relative="1" as="geometry">
            <mxPoint x="-6" y="-10" as="offset" />
          </mxGeometry>
        </mxCell>
        <mxCell id="Cd0Fy0d24aAjxqollalq-55" value="" style="endArrow=classic;html=1;rounded=0;entryX=0.5;entryY=1;entryDx=0;entryDy=0;exitX=0;exitY=0.5;exitDx=0;exitDy=0;" edge="1" parent="1" source="Cd0Fy0d24aAjxqollalq-49" target="Cd0Fy0d24aAjxqollalq-45">
          <mxGeometry width="50" height="50" relative="1" as="geometry">
            <mxPoint x="380" y="905" as="sourcePoint" />
            <mxPoint x="340" y="880" as="targetPoint" />
          </mxGeometry>
        </mxCell>
        <mxCell id="Cd0Fy0d24aAjxqollalq-56" value="extends" style="edgeLabel;html=1;align=center;verticalAlign=middle;resizable=0;points=[];" connectable="0" vertex="1" parent="Cd0Fy0d24aAjxqollalq-55">
          <mxGeometry x="-0.4235" relative="1" as="geometry">
            <mxPoint x="-6" y="-10" as="offset" />
          </mxGeometry>
        </mxCell>
        <mxCell id="Cd0Fy0d24aAjxqollalq-57" value="" style="endArrow=classic;html=1;rounded=0;entryX=0.5;entryY=1;entryDx=0;entryDy=0;exitX=0;exitY=0.5;exitDx=0;exitDy=0;" edge="1" parent="1" source="Cd0Fy0d24aAjxqollalq-50" target="Cd0Fy0d24aAjxqollalq-45">
          <mxGeometry width="50" height="50" relative="1" as="geometry">
            <mxPoint x="390" y="915" as="sourcePoint" />
            <mxPoint x="350" y="890" as="targetPoint" />
          </mxGeometry>
        </mxCell>
        <mxCell id="Cd0Fy0d24aAjxqollalq-58" value="extends" style="edgeLabel;html=1;align=center;verticalAlign=middle;resizable=0;points=[];" connectable="0" vertex="1" parent="Cd0Fy0d24aAjxqollalq-57">
          <mxGeometry x="-0.4235" relative="1" as="geometry">
            <mxPoint x="-6" y="-10" as="offset" />
          </mxGeometry>
        </mxCell>
        <mxCell id="Cd0Fy0d24aAjxqollalq-59" value="" style="endArrow=classic;html=1;rounded=0;exitX=1;exitY=0.5;exitDx=0;exitDy=0;entryX=0.5;entryY=0;entryDx=0;entryDy=0;" edge="1" parent="1" target="Cd0Fy0d24aAjxqollalq-19" source="Cd0Fy0d24aAjxqollalq-13">
          <mxGeometry width="50" height="50" relative="1" as="geometry">
            <mxPoint x="390" y="400" as="sourcePoint" />
            <mxPoint x="650" y="200" as="targetPoint" />
          </mxGeometry>
        </mxCell>
        <mxCell id="Cd0Fy0d24aAjxqollalq-60" value="use" style="edgeLabel;html=1;align=center;verticalAlign=middle;resizable=0;points=[];" connectable="0" vertex="1" parent="Cd0Fy0d24aAjxqollalq-59">
          <mxGeometry x="-0.5061" y="-1" relative="1" as="geometry">
            <mxPoint x="10" as="offset" />
          </mxGeometry>
        </mxCell>
        <mxCell id="Cd0Fy0d24aAjxqollalq-61" value="validar identificacion" style="ellipse;whiteSpace=wrap;html=1;" vertex="1" parent="1">
          <mxGeometry x="570" y="910" width="120" height="80" as="geometry" />
        </mxCell>
        <mxCell id="Cd0Fy0d24aAjxqollalq-62" value="" style="endArrow=classic;html=1;rounded=0;exitX=1;exitY=0.5;exitDx=0;exitDy=0;entryX=0;entryY=0.5;entryDx=0;entryDy=0;" edge="1" parent="1" source="Cd0Fy0d24aAjxqollalq-45" target="Cd0Fy0d24aAjxqollalq-61">
          <mxGeometry width="50" height="50" relative="1" as="geometry">
            <mxPoint x="414" y="560" as="sourcePoint" />
            <mxPoint x="674" y="710" as="targetPoint" />
          </mxGeometry>
        </mxCell>
        <mxCell id="Cd0Fy0d24aAjxqollalq-63" value="use" style="edgeLabel;html=1;align=center;verticalAlign=middle;resizable=0;points=[];" connectable="0" vertex="1" parent="Cd0Fy0d24aAjxqollalq-62">
          <mxGeometry x="-0.5061" y="-1" relative="1" as="geometry">
            <mxPoint x="10" as="offset" />
          </mxGeometry>
        </mxCell>
        <mxCell id="Cd0Fy0d24aAjxqollalq-64" value="Gestionar asignaturas" style="ellipse;whiteSpace=wrap;html=1;" vertex="1" parent="1">
          <mxGeometry x="250" y="1070" width="120" height="80" as="geometry" />
        </mxCell>
        <mxCell id="Cd0Fy0d24aAjxqollalq-65" value="Gestionar grupos" style="ellipse;whiteSpace=wrap;html=1;" vertex="1" parent="1">
          <mxGeometry x="250" y="1169" width="120" height="80" as="geometry" />
        </mxCell>
        <mxCell id="Cd0Fy0d24aAjxqollalq-66" value="" style="endArrow=classic;html=1;rounded=0;exitX=0.5;exitY=0.5;exitDx=0;exitDy=0;exitPerimeter=0;entryX=0;entryY=0.5;entryDx=0;entryDy=0;" edge="1" parent="1" source="Cd0Fy0d24aAjxqollalq-44" target="Cd0Fy0d24aAjxqollalq-45">
          <mxGeometry width="50" height="50" relative="1" as="geometry">
            <mxPoint x="200" y="1020" as="sourcePoint" />
            <mxPoint x="250" y="970" as="targetPoint" />
          </mxGeometry>
        </mxCell>
        <mxCell id="Cd0Fy0d24aAjxqollalq-67" value="" style="endArrow=classic;html=1;rounded=0;exitX=0.5;exitY=0.5;exitDx=0;exitDy=0;exitPerimeter=0;entryX=0;entryY=0.5;entryDx=0;entryDy=0;" edge="1" parent="1" source="Cd0Fy0d24aAjxqollalq-44" target="Cd0Fy0d24aAjxqollalq-64">
          <mxGeometry width="50" height="50" relative="1" as="geometry">
            <mxPoint x="185" y="840" as="sourcePoint" />
            <mxPoint x="270" y="830" as="targetPoint" />
          </mxGeometry>
        </mxCell>
        <mxCell id="Cd0Fy0d24aAjxqollalq-68" value="" style="endArrow=classic;html=1;rounded=0;exitX=0.5;exitY=0.5;exitDx=0;exitDy=0;exitPerimeter=0;entryX=0;entryY=0.5;entryDx=0;entryDy=0;" edge="1" parent="1" source="Cd0Fy0d24aAjxqollalq-44" target="Cd0Fy0d24aAjxqollalq-65">
          <mxGeometry width="50" height="50" relative="1" as="geometry">
            <mxPoint x="195" y="850" as="sourcePoint" />
            <mxPoint x="280" y="840" as="targetPoint" />
          </mxGeometry>
        </mxCell>
        <mxCell id="Cd0Fy0d24aAjxqollalq-69" value="" style="endArrow=classic;html=1;rounded=0;exitX=1;exitY=0.5;exitDx=0;exitDy=0;entryX=0;entryY=0.5;entryDx=0;entryDy=0;" edge="1" parent="1" source="Cd0Fy0d24aAjxqollalq-64" target="Cd0Fy0d24aAjxqollalq-61">
          <mxGeometry width="50" height="50" relative="1" as="geometry">
            <mxPoint x="390" y="830" as="sourcePoint" />
            <mxPoint x="580" y="960" as="targetPoint" />
          </mxGeometry>
        </mxCell>
        <mxCell id="Cd0Fy0d24aAjxqollalq-70" value="use" style="edgeLabel;html=1;align=center;verticalAlign=middle;resizable=0;points=[];" connectable="0" vertex="1" parent="Cd0Fy0d24aAjxqollalq-69">
          <mxGeometry x="-0.5061" y="-1" relative="1" as="geometry">
            <mxPoint x="10" as="offset" />
          </mxGeometry>
        </mxCell>
        <mxCell id="Cd0Fy0d24aAjxqollalq-71" value="" style="endArrow=classic;html=1;rounded=0;exitX=1;exitY=0.5;exitDx=0;exitDy=0;entryX=0;entryY=0.5;entryDx=0;entryDy=0;" edge="1" parent="1" source="Cd0Fy0d24aAjxqollalq-65" target="Cd0Fy0d24aAjxqollalq-61">
          <mxGeometry width="50" height="50" relative="1" as="geometry">
            <mxPoint x="400" y="840" as="sourcePoint" />
            <mxPoint x="590" y="970" as="targetPoint" />
          </mxGeometry>
        </mxCell>
        <mxCell id="Cd0Fy0d24aAjxqollalq-72" value="use" style="edgeLabel;html=1;align=center;verticalAlign=middle;resizable=0;points=[];" connectable="0" vertex="1" parent="Cd0Fy0d24aAjxqollalq-71">
          <mxGeometry x="-0.5061" y="-1" relative="1" as="geometry">
            <mxPoint x="10" as="offset" />
          </mxGeometry>
        </mxCell>
        <mxCell id="lODLi8m-ed48nfpcw5Ou-1" value="" style="endArrow=classic;html=1;rounded=0;entryX=0.5;entryY=1;entryDx=0;entryDy=0;exitX=0;exitY=0;exitDx=0;exitDy=0;" edge="1" parent="1" source="Cd0Fy0d24aAjxqollalq-18" target="Cd0Fy0d24aAjxqollalq-11">
          <mxGeometry width="50" height="50" relative="1" as="geometry">
            <mxPoint x="350" y="290" as="sourcePoint" />
            <mxPoint x="330" y="180" as="targetPoint" />
          </mxGeometry>
        </mxCell>
        <mxCell id="lODLi8m-ed48nfpcw5Ou-2" value="extends" style="edgeLabel;html=1;align=center;verticalAlign=middle;resizable=0;points=[];" connectable="0" vertex="1" parent="lODLi8m-ed48nfpcw5Ou-1">
          <mxGeometry x="-0.4235" relative="1" as="geometry">
            <mxPoint x="-6" y="-10" as="offset" />
          </mxGeometry>
        </mxCell>
      </root>
    </mxGraphModel>
  </diagram>
</mxfile>
